{
    "asset" : {
        "generator" : "Khronos glTF Blender I/O v0.9.36",
        "version" : "2.0"
    },
    "scene" : 0,
    "scenes" : [
        {
            "name" : "Scene",
            "nodes" : [
                3
            ]
        }
    ],
    "nodes" : [
        {
            "mesh" : 0,
            "name" : "node-0"
        },
        {
            "children" : [
                0
            ],
            "name" : "Node.002",
            "translation" : [
                1.584402084350586,
                32.80094528198242,
                4.9745941162109375
            ]
        },
        {
            "children" : [
                1
            ],
            "name" : "Node.001",
            "translation" : [
                -1.584402084350586,
                -32.80094528198242,
                -4.9745941162109375
            ]
        },
        {
            "children" : [
                2
            ],
            "name" : "Node",
            "rotation" : [
                0.7071068286895752,
                0,
                0,
                0.7071067094802856
            ],
            "scale" : [
                0.004999999888241291,
                0.004999999888241291,
                0.004999999888241291
            ]
        }
    ],
    "materials" : [
        {
            "doubleSided" : true,
            "name" : "lambert4SG",
            "pbrMetallicRoughness" : {
                "baseColorFactor" : [
                    0.07000000029802322,
                    0.07000000029802322,
                    0.07000000029802322,
                    1
                ],
                "metallicFactor" : 0,
                "roughnessFactor" : 0.9699476361274719
            }
        },
        {
            "doubleSided" : true,
            "name" : "lambert3SG",
            "pbrMetallicRoughness" : {
                "baseColorFactor" : [
                    0.33000001311302185,
                    0.03999999910593033,
                    0.03999999910593033,
                    1
                ],
                "metallicFactor" : 0,
                "roughnessFactor" : 0.9699476361274719
            }
        },
        {
            "doubleSided" : true,
            "name" : "lambert2SG",
            "pbrMetallicRoughness" : {
                "baseColorFactor" : [
                    0.4000000059604645,
                    0.4000000059604645,
                    0.4000000059604645,
                    1
                ],
                "metallicFactor" : 0,
                "roughnessFactor" : 0.9699476361274719
            }
        }
    ],
    "meshes" : [
        {
            "name" : "buffer-0-mesh-0",
            "primitives" : [
                {
                    "attributes" : {
                        "POSITION" : 0,
                        "NORMAL" : 1,
                        "TEXCOORD_0" : 2
                    },
                    "indices" : 3,
                    "material" : 0
                },
                {
                    "attributes" : {
                        "POSITION" : 4,
                        "NORMAL" : 5,
                        "TEXCOORD_0" : 6
                    },
                    "indices" : 7,
                    "material" : 1
                },
                {
                    "attributes" : {
                        "POSITION" : 8,
                        "NORMAL" : 9,
                        "TEXCOORD_0" : 10
                    },
                    "indices" : 11,
                    "material" : 2
                }
            ]
        }
    ],
    "accessors" : [
        {
            "bufferView" : 0,
            "componentType" : 5126,
            "count" : 114,
            "max" : [
                102.44583129882812,
                211.5099334716797,
                29.160648345947266
            ],
            "min" : [
                -102.44583129882812,
                -219.80162048339844,
                -91.60231018066406
            ],
            "type" : "VEC3"
        },
        {
            "bufferView" : 1,
            "componentType" : 5126,
            "count" : 114,
            "type" : "VEC3"
        },
        {
            "bufferView" : 2,
            "componentType" : 5126,
            "count" : 114,
            "type" : "VEC2"
        },
        {
            "bufferView" : 3,
            "componentType" : 5123,
            "count" : 156,
            "type" : "SCALAR"
        },
        {
            "bufferView" : 4,
            "componentType" : 5126,
            "count" : 194,
            "max" : [
                232.7779083251953,
                71.4676513671875,
                111.47940826416016
            ],
            "min" : [
                -232.7779083251953,
                -216.25477600097656,
                -128.67344665527344
            ],
            "type" : "VEC3"
        },
        {
            "bufferView" : 5,
            "componentType" : 5126,
            "count" : 194,
            "type" : "VEC3"
        },
        {
            "bufferView" : 6,
            "componentType" : 5126,
            "count" : 194,
            "type" : "VEC2"
        },
        {
            "bufferView" : 7,
            "componentType" : 5123,
            "count" : 246,
            "type" : "SCALAR"
        },
        {
            "bufferView" : 8,
            "componentType" : 5126,
            "count" : 242,
            "max" : [
                214.0650177001953,
                365.97747802734375,
                98.89793395996094
            ],
            "min" : [
                -214.0650177001953,
                -267.7833557128906,
                -107.04239654541016
            ],
            "type" : "VEC3"
        },
        {
            "bufferView" : 9,
            "componentType" : 5126,
            "count" : 242,
            "type" : "VEC3"
        },
        {
            "bufferView" : 10,
            "componentType" : 5126,
            "count" : 242,
            "type" : "VEC2"
        },
        {
            "bufferView" : 11,
            "componentType" : 5123,
            "count" : 324,
            "type" : "SCALAR"
        }
    ],
    "bufferViews" : [
        {
            "buffer" : 0,
            "byteLength" : 1368,
            "byteOffset" : 0
        },
        {
            "buffer" : 0,
            "byteLength" : 1368,
            "byteOffset" : 1368
        },
        {
            "buffer" : 0,
            "byteLength" : 912,
            "byteOffset" : 2736
        },
        {
            "buffer" : 0,
            "byteLength" : 312,
            "byteOffset" : 3648
        },
        {
            "buffer" : 0,
            "byteLength" : 2328,
            "byteOffset" : 3960
        },
        {
            "buffer" : 0,
            "byteLength" : 2328,
            "byteOffset" : 6288
        },
        {
            "buffer" : 0,
            "byteLength" : 1552,
            "byteOffset" : 8616
        },
        {
            "buffer" : 0,
            "byteLength" : 492,
            "byteOffset" : 10168
        },
        {
            "buffer" : 0,
            "byteLength" : 2904,
            "byteOffset" : 10660
        },
        {
            "buffer" : 0,
            "byteLength" : 2904,
            "byteOffset" : 13564
        },
        {
            "buffer" : 0,
            "byteLength" : 1936,
            "byteOffset" : 16468
        },
        {
            "buffer" : 0,
            "byteLength" : 648,
            "byteOffset" : 18404
        }
    ],
    "buffers" : [
        {
            "byteLength" : 19052,
            "uri" : "data:application/octet-stream;base64,"
        }
    ]
}
