{
    "asset" : {
        "generator" : "Khronos glTF Blender I/O v1.3.48",
        "version" : "2.0"
    },
    "scene" : 0,
    "scenes" : [
        {
            "name" : "Scene",
            "nodes" : [
                3
            ]
        }
    ],
    "nodes" : [
        {
            "mesh" : 0,
            "name" : "node-0.001"
        },
        {
            "children" : [
                0
            ],
            "name" : "Node.002"
        },
        {
            "children" : [
                1
            ],
            "name" : "Node.001"
        },
        {
            "children" : [
                2
            ],
            "name" : "Node"
        }
    ],
    "materials" : [
        {
            "doubleSided" : true,
            "emissiveFactor" : [
                0,
                0,
                0
            ],
            "name" : "lambert4SG",
            "pbrMetallicRoughness" : {
                "baseColorFactor" : [
                    0.07000000029802322,
                    0.07000000029802322,
                    0.07000000029802322,
                    1
                ],
                "metallicFactor" : 0,
                "roughnessFactor" : 0.9699476361274719
            }
        },
        {
            "doubleSided" : true,
            "emissiveFactor" : [
                0,
                0,
                0
            ],
            "name" : "lambert3SG",
            "pbrMetallicRoughness" : {
                "baseColorFactor" : [
                    0.33000001311302185,
                    0.03999999910593033,
                    0.03999999910593033,
                    1
                ],
                "metallicFactor" : 0,
                "roughnessFactor" : 0.9699476361274719
            }
        },
        {
            "doubleSided" : true,
            "emissiveFactor" : [
                0,
                0,
                0
            ],
            "name" : "lambert2SG",
            "pbrMetallicRoughness" : {
                "baseColorFactor" : [
                    0.4000000059604645,
                    0.4000000059604645,
                    0.4000000059604645,
                    1
                ],
                "metallicFactor" : 0,
                "roughnessFactor" : 0.9699476361274719
            }
        }
    ],
    "meshes" : [
        {
            "name" : "buffer-0-mesh-0",
            "primitives" : [
                {
                    "attributes" : {
                        "POSITION" : 0,
                        "NORMAL" : 1,
                        "TEXCOORD_0" : 2
                    },
                    "indices" : 3,
                    "material" : 0
                },
                {
                    "attributes" : {
                        "POSITION" : 4,
                        "NORMAL" : 5,
                        "TEXCOORD_0" : 6
                    },
                    "indices" : 7,
                    "material" : 1
                },
                {
                    "attributes" : {
                        "POSITION" : 8,
                        "NORMAL" : 9,
                        "TEXCOORD_0" : 10
                    },
                    "indices" : 11,
                    "material" : 2
                }
            ]
        }
    ],
    "accessors" : [
        {
            "bufferView" : 0,
            "componentType" : 5126,
            "count" : 146,
            "max" : [
                0.5122294425964355,
                0.4580116271972656,
                1.099008321762085
            ],
            "min" : [
                -0.5122290849685669,
                -0.14580310881137848,
                -1.0575497150421143
            ],
            "type" : "VEC3"
        },
        {
            "bufferView" : 1,
            "componentType" : 5126,
            "count" : 146,
            "type" : "VEC3"
        },
        {
            "bufferView" : 2,
            "componentType" : 5126,
            "count" : 146,
            "type" : "VEC2"
        },
        {
            "bufferView" : 3,
            "componentType" : 5123,
            "count" : 156,
            "type" : "SCALAR"
        },
        {
            "bufferView" : 4,
            "componentType" : 5126,
            "count" : 202,
            "max" : [
                1.1638898849487305,
                0.6433674097061157,
                1.0812740325927734
            ],
            "min" : [
                -1.1638898849487305,
                -0.5573970675468445,
                -0.3573383092880249
            ],
            "type" : "VEC3"
        },
        {
            "bufferView" : 5,
            "componentType" : 5126,
            "count" : 202,
            "type" : "VEC3"
        },
        {
            "bufferView" : 6,
            "componentType" : 5126,
            "count" : 202,
            "type" : "VEC2"
        },
        {
            "bufferView" : 7,
            "componentType" : 5123,
            "count" : 246,
            "type" : "SCALAR"
        },
        {
            "bufferView" : 8,
            "componentType" : 5126,
            "count" : 292,
            "max" : [
                1.0703253746032715,
                0.5352122187614441,
                1.3389170169830322
            ],
            "min" : [
                -1.0703253746032715,
                -0.49448972940444946,
                -1.8298875093460083
            ],
            "type" : "VEC3"
        },
        {
            "bufferView" : 9,
            "componentType" : 5126,
            "count" : 292,
            "type" : "VEC3"
        },
        {
            "bufferView" : 10,
            "componentType" : 5126,
            "count" : 292,
            "type" : "VEC2"
        },
        {
            "bufferView" : 11,
            "componentType" : 5123,
            "count" : 324,
            "type" : "SCALAR"
        }
    ],
    "bufferViews" : [
        {
            "buffer" : 0,
            "byteLength" : 1752,
            "byteOffset" : 0
        },
        {
            "buffer" : 0,
            "byteLength" : 1752,
            "byteOffset" : 1752
        },
        {
            "buffer" : 0,
            "byteLength" : 1168,
            "byteOffset" : 3504
        },
        {
            "buffer" : 0,
            "byteLength" : 312,
            "byteOffset" : 4672
        },
        {
            "buffer" : 0,
            "byteLength" : 2424,
            "byteOffset" : 4984
        },
        {
            "buffer" : 0,
            "byteLength" : 2424,
            "byteOffset" : 7408
        },
        {
            "buffer" : 0,
            "byteLength" : 1616,
            "byteOffset" : 9832
        },
        {
            "buffer" : 0,
            "byteLength" : 492,
            "byteOffset" : 11448
        },
        {
            "buffer" : 0,
            "byteLength" : 3504,
            "byteOffset" : 11940
        },
        {
            "buffer" : 0,
            "byteLength" : 3504,
            "byteOffset" : 15444
        },
        {
            "buffer" : 0,
            "byteLength" : 2336,
            "byteOffset" : 18948
        },
        {
            "buffer" : 0,
            "byteLength" : 648,
            "byteOffset" : 21284
        }
    ],
    "buffers" : [
        {
            "byteLength" : 21932,
            "uri" : "data:application/octet-stream;base64,"
        }
    ]
}
