{
    "asset" : {
        "generator" : "Khronos glTF Blender I/O v1.3.48",
        "version" : "2.0"
    },
    "scene" : 0,
    "scenes" : [
        {
            "name" : "Scene",
            "nodes" : [
                0
            ]
        }
    ],
    "nodes" : [
        {
            "mesh" : 0,
            "name" : "node-0"
        }
    ],
    "materials" : [
        {
            "doubleSided" : true,
            "emissiveFactor" : [
                0,
                0,
                0
            ],
            "name" : "lambert4SG.001",
            "pbrMetallicRoughness" : {
                "baseColorFactor" : [
                    0.07000000029802322,
                    0.07000000029802322,
                    0.07000000029802322,
                    1
                ],
                "metallicFactor" : 0,
                "roughnessFactor" : 0.9699476361274719
            }
        },
        {
            "doubleSided" : true,
            "emissiveFactor" : [
                0,
                0,
                0
            ],
            "name" : "lambert3SG.001",
            "pbrMetallicRoughness" : {
                "baseColorFactor" : [
                    0.33000001311302185,
                    0.03999999910593033,
                    0.03999999910593033,
                    1
                ],
                "metallicFactor" : 0,
                "roughnessFactor" : 0.9699476361274719
            }
        },
        {
            "doubleSided" : true,
            "emissiveFactor" : [
                0,
                0,
                0
            ],
            "name" : "lambert2SG.001",
            "pbrMetallicRoughness" : {
                "baseColorFactor" : [
                    0.4000000059604645,
                    0.4000000059604645,
                    0.4000000059604645,
                    1
                ],
                "metallicFactor" : 0,
                "roughnessFactor" : 0.9699476361274719
            }
        }
    ],
    "meshes" : [
        {
            "name" : "buffer-0-mesh-0.001",
            "primitives" : [
                {
                    "attributes" : {
                        "POSITION" : 0,
                        "NORMAL" : 1,
                        "TEXCOORD_0" : 2
                    },
                    "indices" : 3,
                    "material" : 0
                },
                {
                    "attributes" : {
                        "POSITION" : 4,
                        "NORMAL" : 5,
                        "TEXCOORD_0" : 6
                    },
                    "indices" : 7,
                    "material" : 1
                },
                {
                    "attributes" : {
                        "POSITION" : 8,
                        "NORMAL" : 9,
                        "TEXCOORD_0" : 10
                    },
                    "indices" : 11,
                    "material" : 2
                }
            ]
        }
    ],
    "accessors" : [
        {
            "bufferView" : 0,
            "componentType" : 5126,
            "count" : 276,
            "max" : [
                0.5746115446090698,
                0.3404868245124817,
                0.7898402214050293
            ],
            "min" : [
                -0.5746114253997803,
                -0.3361041843891144,
                -0.7841882705688477
            ],
            "type" : "VEC3"
        },
        {
            "bufferView" : 1,
            "componentType" : 5126,
            "count" : 276,
            "type" : "VEC3"
        },
        {
            "bufferView" : 2,
            "componentType" : 5126,
            "count" : 276,
            "type" : "VEC2"
        },
        {
            "bufferView" : 3,
            "componentType" : 5123,
            "count" : 306,
            "type" : "SCALAR"
        },
        {
            "bufferView" : 4,
            "componentType" : 5126,
            "count" : 320,
            "max" : [
                0.6847454309463501,
                0.4005637466907501,
                0.7473999261856079
            ],
            "min" : [
                -0.6847454309463501,
                -0.40056368708610535,
                -0.5863851308822632
            ],
            "type" : "VEC3"
        },
        {
            "bufferView" : 5,
            "componentType" : 5126,
            "count" : 320,
            "type" : "VEC3"
        },
        {
            "bufferView" : 6,
            "componentType" : 5126,
            "count" : 320,
            "type" : "VEC2"
        },
        {
            "bufferView" : 7,
            "componentType" : 5123,
            "count" : 336,
            "type" : "SCALAR"
        },
        {
            "bufferView" : 8,
            "componentType" : 5126,
            "count" : 218,
            "max" : [
                1.1396746635437012,
                0.4952928125858307,
                0.877510130405426
            ],
            "min" : [
                -1.1396746635437012,
                -0.46695956587791443,
                -0.7288460731506348
            ],
            "type" : "VEC3"
        },
        {
            "bufferView" : 9,
            "componentType" : 5126,
            "count" : 218,
            "type" : "VEC3"
        },
        {
            "bufferView" : 10,
            "componentType" : 5126,
            "count" : 218,
            "type" : "VEC2"
        },
        {
            "bufferView" : 11,
            "componentType" : 5123,
            "count" : 228,
            "type" : "SCALAR"
        }
    ],
    "bufferViews" : [
        {
            "buffer" : 0,
            "byteLength" : 3312,
            "byteOffset" : 0
        },
        {
            "buffer" : 0,
            "byteLength" : 3312,
            "byteOffset" : 3312
        },
        {
            "buffer" : 0,
            "byteLength" : 2208,
            "byteOffset" : 6624
        },
        {
            "buffer" : 0,
            "byteLength" : 612,
            "byteOffset" : 8832
        },
        {
            "buffer" : 0,
            "byteLength" : 3840,
            "byteOffset" : 9444
        },
        {
            "buffer" : 0,
            "byteLength" : 3840,
            "byteOffset" : 13284
        },
        {
            "buffer" : 0,
            "byteLength" : 2560,
            "byteOffset" : 17124
        },
        {
            "buffer" : 0,
            "byteLength" : 672,
            "byteOffset" : 19684
        },
        {
            "buffer" : 0,
            "byteLength" : 2616,
            "byteOffset" : 20356
        },
        {
            "buffer" : 0,
            "byteLength" : 2616,
            "byteOffset" : 22972
        },
        {
            "buffer" : 0,
            "byteLength" : 1744,
            "byteOffset" : 25588
        },
        {
            "buffer" : 0,
            "byteLength" : 456,
            "byteOffset" : 27332
        }
    ],
    "buffers" : [
        {
            "byteLength" : 27788,
            "uri" : "data:application/octet-stream;base64,"
        }
    ]
}
